 <svg  version="1.0" xmlns="http://www.w3.org/2000/svg"  width="900.000000pt" height="243.000000pt" viewBox="0 0 900.000000 243.000000"  preserveAspectRatio="xMidYMid meet">  <g transform="translate(0.000000,243.000000) scale(0.100000,-0.100000)" fill="#057c3c" stroke="none"> <path d="M3501 2137 c1 -90 -1 -169 -5 -175 -5 -9 -19 -5 -50 13 -170 99 -326 -97 -326 -410 0 -124 44 -315 72 -315 5 0 8 -6 8 -14 0 -8 18 -28 39 -45 34 -27 47 -31 99 -31 58 0 62 2 106 46 46 45 51 45 58 -1 3 -20 66 -41 80 -26 5 4 9 258 11 564 l3 557 -49 0 -49 0 3 -163z m-37 -274 l36 -18 0 -241 c0 -237 0 -241 -22 -260 -85 -73 -145 -84 -190 -36 -54 57 -59 80 -59 257 -1 184 11 228 73 285 26 24 41 30 80 30 26 0 63 -8 82 -17z"/> <path d="M4549 2254 c-26 -7 -52 -21 -59 -29 -7 -8 -19 -15 -26 -15 -19 0 -76 -94 -91 -150 -25 -92 -10 -221 34 -291 13 -20 41 -48 62 -62 40 -26 147 -67 176 -67 23 0 73 -40 96 -76 27 -44 27 -160 -1 -206 -33 -57 -71 -78 -138 -78 -69 0 -138 31 -180 82 -76 91 -86 86 -76 -36 7 -87 7 -88 43 -110 20 -13 51 -27 69 -30 17 -4 34 -12 37 -17 11 -17 170 -10 214 9 76 34 133 122 156 237 11 61 11 79 -2 140 -9 39 -22 77 -29 86 -8 8 -14 20 -14 25 0 12 -53 64 -65 64 -5 0 -16 6 -24 13 -9 8 -50 24 -91 37 -102 32 -134 52 -159 99 -15 27 -13 161 2 189 18 32 96 82 129 82 47 0 131 -40 171 -81 43 -44 62 -46 61 -6 -3 137 -2 134 -36 155 -29 18 -166 53 -200 51 -7 0 -34 -7 -59 -15z"/> <path d="M515 2240 c-3 -5 -6 -244 -8 -532 l-2 -523 172 1 173 0 47 41 c31 25 60 63 80 104 31 61 32 70 33 177 0 133 -8 156 -83 224 l-52 47 36 38 c56 60 71 106 66 199 -6 117 -33 172 -102 206 -33 17 -351 33 -360 18z m234 -120 c57 0 70 -4 94 -25 25 -24 27 -31 27 -108 0 -107 -5 -121 -50 -152 -34 -24 -44 -26 -126 -23 l-89 3 -1 145 c0 84 4 151 10 158 6 9 20 12 39 8 16 -3 59 -6 96 -6z m60 -435 c22 -8 49 -22 60 -32 21 -20 51 -111 51 -153 0 -46 -32 -123 -65 -156 -36 -36 -93 -48 -194 -42 l-54 3 -1 193 c-1 106 1 195 3 198 11 10 163 3 200 -11z"/> <path d="M5951 2099 l4 -111 -35 -12 c-32 -10 -35 -14 -35 -51 0 -38 2 -40 34 -45 l33 -5 4 -292 c2 -271 4 -294 23 -332 32 -61 77 -91 140 -91 29 0 65 7 82 16 28 14 30 18 27 67 -3 58 7 53 -95 40 -39 -5 -43 -3 -63 29 -19 31 -20 49 -20 302 l0 269 78 -7 c42 -3 83 -2 90 2 9 6 12 25 10 53 l-3 44 -87 -3 c-85 -2 -88 -1 -89 20 0 13 0 67 1 121 l1 97 -52 0 -51 0 3 -111z"/> <path d="M3865 2062 c-64 -22 -145 -116 -145 -168 0 -11 -7 -29 -15 -40 -9 -12 -14 -43 -15 -85 0 -36 -7 -88 -15 -115 -13 -43 -13 -56 0 -104 8 -30 15 -78 15 -106 0 -29 7 -65 15 -80 8 -16 15 -36 15 -44 0 -25 65 -119 100 -145 57 -42 84 -49 121 -30 93 47 156 128 184 235 9 36 21 81 26 100 12 41 6 222 -9 295 -25 120 -74 210 -147 267 -28 22 -96 32 -130 20z m95 -136 c-1 -40 -31 -76 -64 -76 -30 0 -32 3 -41 62 -7 43 -6 47 16 50 13 2 39 1 57 -1 29 -3 32 -6 32 -35z m-142 -107 c4 -32 -20 -64 -42 -56 -21 8 -40 51 -33 71 5 11 16 15 39 12 26 -2 34 -8 36 -27z m252 -9 c0 -36 -3 -40 -25 -40 -14 0 -29 8 -35 20 -15 28 4 60 35 60 22 0 25 -4 25 -40z m-121 -26 c17 -14 31 -33 31 -41 0 -8 7 -36 17 -62 16 -45 15 -48 -12 -131 -39 -120 -46 -162 -30 -180 9 -11 11 -29 6 -63 -5 -26 -10 -49 -12 -51 -13 -13 -56 -15 -72 -4 -20 15 -34 87 -22 115 13 31 4 114 -17 154 -11 21 -22 65 -25 97 -5 50 -2 67 21 113 42 85 65 95 115 53z m-180 -152 c17 -31 2 -62 -28 -62 -68 0 -67 78 1 80 10 0 22 -8 27 -18z m359 -19 c4 -27 -30 -47 -64 -39 -19 5 -24 13 -24 37 0 29 1 30 43 27 34 -2 43 -7 45 -25z m-328 -148 c26 -31 -9 -81 -47 -68 -18 6 -16 43 4 65 20 22 27 22 43 3z m273 -22 c7 -36 -16 -62 -41 -47 -35 22 -27 74 12 74 18 0 25 -7 29 -27z"/> <path d="M1180 1986 c-19 -6 -41 -15 -47 -19 -17 -10 -18 -137 -2 -137 6 0 33 11 61 25 61 31 151 34 183 7 39 -33 55 -66 55 -114 l0 -48 -42 0 c-57 0 -175 -29 -215 -53 -18 -10 -38 -29 -45 -42 -7 -12 -21 -36 -31 -54 -13 -23 -18 -56 -19 -138 -2 -112 -3 -106 48 -195 36 -62 149 -79 216 -33 21 14 42 34 48 45 17 31 38 24 42 -12 3 -32 5 -33 47 -33 l44 0 -2 329 c-2 358 -2 352 -61 419 -43 49 -90 67 -172 66 -40 -1 -89 -6 -108 -13z m250 -505 l0 -109 -52 -47 c-51 -44 -55 -46 -108 -43 -49 3 -56 6 -77 37 -28 41 -32 135 -8 182 30 57 87 81 213 87 l32 2 0 -109z"/> <path d="M2165 1982 c-57 -32 -87 -67 -128 -152 l-41 -85 0 -175 0 -175 34 -60 c50 -91 87 -133 137 -155 55 -24 157 -27 199 -5 16 8 36 15 44 15 8 0 28 11 43 25 24 23 27 33 27 90 0 58 -2 65 -19 65 -11 0 -28 -10 -38 -22 -41 -50 -79 -68 -144 -68 -78 0 -117 23 -149 86 -33 67 -55 174 -38 189 9 8 64 10 193 6 99 -4 184 -4 188 0 12 9 3 205 -11 257 -23 83 -62 137 -119 166 -43 21 -139 20 -178 -2z m151 -112 c44 -36 67 -86 68 -154 l1 -48 -145 0 -145 -1 -3 28 c-7 59 50 156 114 193 33 19 70 13 110 -18z"/> <path d="M2775 1981 c-16 -10 -43 -33 -58 -50 -34 -39 -53 -36 -49 8 3 25 -1 33 -20 40 -12 4 -33 5 -46 2 l-24 -7 -2 -393 -2 -393 23 -11 c16 -7 33 -7 51 -1 l27 9 -4 294 -3 293 38 39 c21 21 43 39 50 39 6 0 17 7 24 15 17 20 70 18 96 -3 47 -40 49 -50 54 -377 l5 -310 34 -3 c18 -2 38 1 44 7 7 7 10 116 8 328 -2 360 -6 386 -75 454 -35 35 -43 39 -90 39 -32 0 -62 -7 -81 -19z"/> <path d="M5580 1985 c-7 -8 -18 -15 -24 -15 -20 0 -76 -64 -76 -87 0 -11 -7 -26 -16 -34 -12 -10 -15 -29 -11 -98 5 -124 22 -159 93 -198 33 -17 69 -32 81 -32 26 -1 96 -36 114 -57 7 -8 13 -41 13 -74 1 -49 -3 -63 -23 -84 -22 -23 -33 -26 -91 -26 -71 0 -109 19 -157 78 -33 41 -46 19 -41 -68 3 -58 7 -74 23 -83 80 -46 210 -61 267 -30 75 41 110 102 125 219 5 41 -18 136 -40 165 -24 32 -101 79 -127 79 -42 0 -110 34 -131 66 -30 45 -25 94 14 138 43 49 88 57 151 25 25 -12 56 -33 68 -46 40 -43 52 -31 44 44 -4 37 -12 73 -18 80 -38 46 -209 73 -238 38z"/> <path d="M6422 1980 c-48 -26 -88 -74 -125 -150 -32 -65 -32 -66 -35 -242 l-3 -177 35 -73 c37 -78 92 -148 117 -148 8 0 24 -7 35 -15 25 -19 150 -19 184 0 14 8 34 14 45 15 11 0 30 12 42 27 19 21 23 38 23 90 0 73 -11 79 -55 33 -16 -16 -34 -30 -41 -30 -6 0 -17 -7 -24 -15 -9 -11 -32 -15 -83 -15 -71 0 -71 0 -111 44 -50 53 -78 126 -74 192 l3 49 195 0 195 0 -3 90 c-3 127 -36 242 -81 285 -50 48 -79 60 -143 59 -42 0 -74 -6 -96 -19z m131 -91 c38 -20 64 -53 80 -99 23 -71 29 -107 18 -115 -6 -3 -75 -7 -153 -8 l-143 -2 -3 29 c-5 40 22 104 60 147 54 59 94 72 141 48z"/> <path d="M6998 1955 c-49 -51 -74 -59 -64 -20 8 33 -31 61 -69 48 l-26 -8 0 -395 0 -395 30 -9 c19 -5 40 -5 53 1 21 9 21 11 19 310 l-2 300 23 25 c37 39 84 68 110 68 14 0 37 -13 54 -31 l29 -30 5 -322 5 -321 38 -1 c21 -1 41 3 45 9 3 6 5 141 4 301 -3 326 -8 302 77 363 52 37 76 39 112 9 41 -34 51 -132 48 -426 l-3 -246 48 0 49 0 -2 309 c-2 238 -6 319 -16 350 -8 23 -15 49 -15 59 0 10 -19 36 -42 57 -36 35 -47 40 -88 40 -54 0 -119 -40 -142 -87 -19 -40 -54 -43 -61 -5 -3 16 -20 43 -38 60 -28 28 -40 32 -85 32 -49 0 -55 -3 -96 -45z"/> <path d="M7800 1981 c-74 -39 -120 -126 -120 -225 0 -116 47 -190 141 -221 138 -45 179 -78 179 -141 0 -79 -40 -113 -130 -114 -71 0 -102 14 -140 63 -12 15 -30 27 -41 27 -17 0 -19 -7 -19 -63 0 -74 15 -101 68 -117 20 -7 41 -16 46 -21 6 -5 41 -9 78 -9 111 0 178 49 215 156 20 58 13 163 -13 218 -24 50 -98 104 -142 105 -37 1 -86 23 -119 54 -18 16 -23 31 -23 74 0 44 5 58 29 85 26 30 35 33 83 33 54 -1 100 -23 139 -69 9 -11 22 -17 32 -13 12 5 14 17 10 69 -5 61 -23 98 -48 98 -7 0 -26 7 -41 15 -41 21 -140 19 -184 -4z"/> <path d="M1672 1981 c-11 -7 -14 -85 -15 -402 l0 -393 25 -8 c14 -5 36 -5 49 0 l24 9 -4 285 -3 284 32 28 c48 40 109 68 134 62 36 -9 49 8 52 69 3 50 1 57 -19 64 -12 4 -37 4 -55 -1 -34 -10 -102 -68 -102 -88 0 -5 -12 -10 -26 -10 -24 0 -25 2 -19 44 6 38 4 46 -13 55 -25 13 -42 14 -60 2z"/> <path d="M4911 1976 c-13 -15 -6 -81 11 -102 5 -7 15 -40 22 -75 8 -35 22 -84 31 -109 10 -25 19 -63 22 -85 2 -22 10 -53 18 -70 24 -53 75 -264 75 -313 0 -26 -13 -88 -29 -137 -16 -50 -32 -105 -36 -122 -3 -18 -11 -33 -16 -33 -6 0 -9 -12 -7 -27 2 -22 9 -29 32 -31 55 -7 81 13 93 71 5 29 18 79 28 112 10 33 21 78 24 100 4 22 13 50 19 62 7 12 12 39 12 61 0 23 6 45 15 52 8 7 15 24 15 39 0 14 7 35 15 45 8 11 15 36 15 55 1 20 7 47 15 61 8 14 14 36 15 50 0 24 5 41 44 165 9 28 16 60 16 71 0 12 7 27 15 34 8 7 15 23 15 36 0 13 5 34 11 48 9 20 9 29 -1 41 -15 18 -60 20 -81 3 -17 -14 -49 -121 -49 -165 -1 -16 -7 -39 -15 -53 -8 -14 -14 -37 -15 -51 0 -15 -6 -32 -14 -38 -8 -7 -17 -35 -19 -64 -10 -96 -32 -200 -44 -204 -17 -6 -35 33 -43 96 -4 31 -12 70 -18 86 -6 17 -25 93 -43 170 -17 77 -39 160 -49 185 -15 40 -20 45 -52 48 -21 2 -39 -3 -47 -12z"/> <path d="M3248 919 c-13 -7 -18 -22 -18 -50 0 -22 -7 -56 -15 -76 -8 -19 -15 -52 -15 -72 0 -21 -7 -46 -15 -57 -8 -10 -15 -31 -15 -45 0 -15 -7 -32 -15 -39 -8 -7 -15 -28 -15 -47 0 -18 -6 -49 -14 -68 -8 -19 -18 -56 -22 -82 -4 -26 -13 -63 -21 -81 -25 -60 -15 -64 156 -64 87 0 157 4 163 10 5 5 8 25 6 43 l-3 34 -117 -4 -118 -3 0 28 c0 16 7 38 15 48 8 11 15 34 15 50 0 17 9 54 19 81 l19 50 112 0 c107 0 112 1 131 25 37 48 25 55 -101 55 l-115 0 1 35 c2 36 20 113 34 140 6 12 29 14 133 11 125 -3 125 -3 142 22 9 15 15 34 13 44 -3 16 -18 18 -163 20 -90 1 -168 -3 -177 -8z"/> <path d="M5697 923 c-4 -3 -7 -18 -7 -32 0 -14 -7 -39 -15 -55 -8 -15 -15 -36 -15 -46 0 -10 -9 -47 -21 -82 -21 -64 -53 -187 -70 -268 -5 -25 -13 -54 -18 -65 -51 -116 -51 -140 4 -140 32 0 38 9 60 90 9 33 23 83 31 111 8 28 14 63 14 77 0 15 6 44 14 64 8 21 17 56 20 78 10 68 26 115 40 115 11 0 15 -37 21 -160 8 -178 15 -199 58 -179 15 7 27 18 27 25 0 7 17 41 38 75 39 64 65 110 98 169 32 57 56 90 65 90 13 0 11 -44 -2 -57 -6 -6 -14 -26 -19 -44 -5 -19 -16 -59 -24 -89 -9 -30 -24 -84 -32 -120 -9 -36 -20 -74 -25 -85 -12 -28 -31 -105 -32 -135 -2 -20 3 -26 23 -28 14 -1 30 1 37 6 7 4 22 52 34 107 11 55 26 109 32 120 6 11 14 36 18 55 4 19 15 60 24 90 9 30 20 81 26 113 5 32 15 70 23 85 8 15 16 48 18 72 l3 45 -41 3 c-47 3 -50 1 -120 -113 -48 -78 -59 -98 -103 -180 -12 -22 -27 -40 -34 -40 -23 0 -36 69 -36 192 -1 110 -3 123 -20 133 -22 11 -84 14 -94 3z"/> <path d="M6636 897 c-10 -8 -19 -30 -22 -55 -5 -54 -19 -81 -50 -92 -28 -11 -33 -54 -8 -68 12 -7 14 -17 9 -45 -4 -21 -11 -40 -16 -43 -5 -3 -9 -21 -9 -39 0 -19 -9 -58 -20 -87 -11 -29 -23 -84 -27 -121 -5 -62 -4 -70 17 -92 19 -21 33 -25 77 -25 45 0 55 4 69 25 23 35 15 60 -21 62 -17 0 -38 2 -47 2 -35 2 -30 63 14 186 6 17 16 62 22 100 l12 70 74 6 c100 8 103 6 95 -50 -4 -25 -11 -51 -17 -58 -22 -27 -61 -235 -52 -277 10 -51 31 -66 89 -66 58 0 75 12 78 57 2 27 0 28 -48 33 l-50 5 1 38 c1 21 6 48 12 60 12 25 35 104 55 192 l14 60 62 3 c67 3 78 13 67 58 -6 23 -10 25 -50 19 -54 -9 -61 1 -40 57 28 75 28 85 4 91 -12 3 -33 2 -46 -3 -19 -8 -24 -19 -30 -70 -9 -79 -25 -91 -112 -83 -41 4 -66 11 -69 20 -3 7 4 37 16 66 21 49 21 52 5 64 -22 16 -36 16 -58 0z"/> <path d="M3732 749 c-40 -20 -44 -20 -61 -5 -38 35 -81 13 -81 -40 0 -18 -5 -45 -11 -61 -12 -31 -36 -116 -50 -178 -5 -22 -13 -49 -18 -60 -9 -22 -30 -96 -38 -137 -6 -32 12 -44 52 -34 17 4 26 15 30 34 3 15 12 47 19 72 8 25 17 65 21 90 7 46 17 84 42 158 18 52 74 92 128 92 29 0 36 -4 41 -26 4 -14 -1 -58 -10 -97 -10 -40 -22 -94 -28 -122 -6 -27 -22 -74 -35 -104 -33 -73 -28 -95 19 -99 32 -3 38 0 43 20 3 13 14 61 24 108 27 121 42 180 57 223 8 20 14 58 14 83 0 37 -5 51 -29 75 -36 35 -69 37 -129 8z"/> <path d="M4115 763 c-61 -9 -160 -135 -185 -233 -39 -153 -33 -220 23 -271 28 -26 39 -29 99 -29 37 0 69 4 72 9 3 4 18 11 34 14 23 5 32 15 46 51 10 25 15 50 11 55 -3 6 -24 0 -50 -15 -65 -36 -123 -41 -157 -14 -25 19 -28 28 -28 85 0 38 5 67 12 71 6 4 67 6 135 5 l123 -2 17 38 c9 22 17 67 17 110 1 65 -2 75 -24 98 -26 26 -86 38 -145 28z m85 -90 c15 -20 20 -38 18 -67 l-3 -41 -95 -7 c-56 -4 -99 -3 -105 3 -12 12 19 66 54 94 65 53 100 57 131 18z"/> <path d="M4754 761 c-17 -4 -36 -11 -42 -15 -26 -16 -107 -132 -127 -183 -12 -29 -25 -56 -29 -60 -3 -3 -6 -50 -6 -104 0 -96 0 -97 31 -123 37 -31 77 -33 138 -6 24 11 45 20 47 20 15 0 -1 -53 -29 -95 l-32 -50 -70 -3 c-41 -2 -79 2 -92 9 -34 18 -55 -4 -51 -55 l3 -41 82 -3 c150 -5 211 51 269 244 14 49 30 109 35 134 5 24 14 49 19 54 6 6 10 21 10 36 0 14 9 57 20 95 24 85 26 133 4 142 -8 3 -20 1 -25 -4 -7 -7 -23 -6 -47 3 -41 15 -62 15 -108 5z m104 -95 c15 -14 12 -26 -24 -128 -7 -20 -16 -58 -20 -85 -8 -61 -30 -92 -80 -109 -53 -19 -71 -17 -94 6 -32 32 -23 107 26 226 17 44 70 102 97 107 32 7 80 -2 95 -17z"/> <path d="M5307 759 c-10 -6 -28 -31 -41 -57 -101 -201 -153 -296 -164 -300 -9 -3 -12 41 -14 175 l-3 178 -31 3 c-19 2 -33 -2 -36 -10 -2 -7 0 -115 5 -239 6 -124 7 -232 3 -240 -12 -25 -50 -87 -90 -144 -36 -52 -38 -58 -23 -73 19 -18 64 -8 78 18 4 8 24 43 44 77 20 35 48 86 63 115 15 29 39 71 53 93 14 22 29 50 33 63 4 12 12 22 17 22 5 0 9 6 9 13 0 8 14 33 30 55 17 23 30 45 30 48 0 3 23 44 51 90 35 58 48 90 44 104 -7 22 -30 25 -58 9z"/> <path d="M6295 762 c-70 -4 -81 -10 -100 -51 -26 -59 -2 -79 51 -44 38 24 121 24 140 -1 17 -24 18 -58 2 -74 -7 -7 -29 -12 -50 -12 -86 0 -213 -74 -235 -138 -33 -91 -30 -163 7 -197 27 -25 103 -22 137 5 32 25 41 25 69 -1 l22 -20 21 27 c11 15 21 35 21 45 0 10 6 33 14 51 7 18 23 78 36 133 12 55 26 117 31 138 10 38 -1 96 -23 124 -10 12 -79 20 -143 15z m61 -267 c3 -8 -2 -39 -11 -70 -20 -62 -59 -99 -117 -110 -75 -14 -99 33 -55 108 24 42 50 60 112 75 58 14 65 14 71 -3z"/> <path d="M7166 760 c-59 -18 -143 -125 -174 -223 -24 -74 -29 -183 -11 -235 22 -64 128 -91 222 -58 41 14 77 57 77 92 0 33 -10 35 -49 9 -20 -13 -59 -27 -86 -30 -45 -6 -53 -4 -78 19 -26 24 -28 31 -25 88 l3 63 138 3 c134 2 138 3 147 26 14 37 22 158 12 191 -14 53 -97 78 -176 55z m84 -75 c28 -14 30 -20 30 -69 l0 -54 -92 -4 c-131 -7 -138 -2 -91 59 29 37 89 83 111 83 7 0 26 -7 42 -15z"/> <path d="M7802 763 c-38 -5 -108 -70 -128 -120 -19 -44 -18 -128 1 -147 9 -8 42 -25 75 -37 32 -12 61 -27 64 -35 10 -25 -18 -88 -44 -102 -31 -16 -110 -10 -124 10 -16 21 -54 40 -60 30 -3 -5 -8 -27 -12 -50 -6 -39 -4 -42 27 -61 49 -30 137 -29 187 3 37 23 92 85 92 104 0 5 7 16 16 23 12 10 15 25 11 58 -6 51 -29 75 -92 92 -64 17 -85 35 -85 73 0 75 107 110 171 56 30 -27 38 -22 55 25 12 36 12 42 -4 57 -18 17 -95 28 -150 21z"/> <path d="M4386 748 c-3 -7 -7 -33 -9 -58 -3 -25 -14 -79 -25 -120 -19 -71 -26 -92 -59 -183 -7 -20 -13 -48 -13 -60 0 -13 -5 -28 -11 -34 -6 -6 -9 -21 -7 -34 2 -20 9 -24 38 -24 l34 0 24 85 c13 47 27 105 32 130 15 80 31 134 46 158 18 28 71 52 114 52 25 0 33 6 47 34 9 19 13 41 10 50 -10 25 -61 20 -95 -9 -37 -31 -50 -31 -54 -2 -2 17 -11 23 -36 25 -20 2 -34 -2 -36 -10z"/> <path d="M7464 748 c-9 -13 -31 -88 -54 -183 -6 -27 -18 -63 -26 -78 -8 -16 -14 -41 -14 -55 0 -15 -9 -51 -21 -81 -11 -30 -19 -68 -17 -85 3 -27 7 -31 32 -31 31 0 30 -1 54 90 6 22 20 70 31 108 12 37 21 78 21 92 0 34 27 87 56 108 13 10 43 21 66 25 49 9 84 47 73 81 -9 29 -50 27 -91 -4 -40 -31 -52 -31 -56 -2 -3 25 -41 36 -54 15z"/> </g> </svg> 